<svg data-v-fde0c5aa="" xmlns="http://www.w3.org/2000/svg" viewBox="0 0 300 300" class="iconLeft"><!----><defs data-v-fde0c5aa=""><!----></defs><rect data-v-fde0c5aa="" fill="transparent" x="0" y="0" width="300px" height="100px" class="logo-background-square"></rect><defs data-v-fde0c5aa=""><!----></defs><g data-v-fde0c5aa="" id="8055f8e8-b277-4c5a-a84a-e2ceaf09006f" fill="#FFFFFF" transform="matrix(3.376181286438039,0,0,3.376181286438039,109.82069679470249,121.36998262660987)"><path d="M1.09 9.25L1.09 9.25L1.09 3.90Q1.09 3.53 1.57 3.53L1.57 3.53L2.61 3.53Q3.09 3.53 3.09 3.90L3.09 3.90L3.09 9.18Q3.09 11.03 3.63 11.49Q4.18 11.95 4.86 11.95L4.86 11.95Q5.54 11.95 6.09 11.49Q6.63 11.03 6.63 9.18L6.63 9.18L6.63 3.90Q6.63 3.53 7.11 3.53L7.11 3.53L8.15 3.53Q8.63 3.53 8.63 3.90L8.63 3.90L8.63 9.25Q8.63 11.64 7.62 12.60Q6.60 13.56 4.86 13.56L4.86 13.56Q3.12 13.56 2.11 12.60Q1.09 11.64 1.09 9.25ZM12.15 13.33L11.06 13.33Q10.65 13.33 10.65 12.92L10.65 12.92L10.65 6.56Q10.65 6.15 11.06 6.15L11.06 6.15L12.14 6.15Q12.55 6.15 12.55 6.56L12.55 6.56L12.55 6.96L12.58 6.96Q12.89 6.42 13.38 6.22Q13.86 6.02 14.55 6.02L14.55 6.02Q15.61 6.02 16.31 6.69Q17.01 7.36 17.01 9.13L17.01 9.13L17.01 12.92Q17.01 13.33 16.60 13.33L16.60 13.33L15.50 13.33Q15.09 13.33 15.09 12.92L15.09 12.92L15.09 9.63Q15.09 8.13 14.89 7.75Q14.68 7.36 14.01 7.36L14.01 7.36Q13.29 7.36 12.93 7.91Q12.56 8.47 12.56 10.23L12.56 10.23L12.56 12.92Q12.56 13.33 12.15 13.33L12.15 13.33ZM20.36 13.33L19.26 13.33Q18.85 13.33 18.85 12.92L18.85 12.92L18.85 6.56Q18.85 6.15 19.26 6.15L19.26 6.15L20.36 6.15Q20.77 6.15 20.77 6.56L20.77 6.56L20.77 12.92Q20.77 13.33 20.36 13.33L20.36 13.33ZM20.36 5.10L19.26 5.10Q18.85 5.10 18.85 4.69L18.85 4.69L18.85 3.81Q18.85 3.40 19.26 3.40L19.26 3.40L20.36 3.40Q20.77 3.40 20.77 3.81L20.77 3.81L20.77 4.69Q20.77 5.10 20.36 5.10L20.36 5.10ZM26.00 13.33L23.34 13.33Q22.79 13.33 22.79 12.82L22.79 12.82L22.79 4.04Q22.79 3.53 23.34 3.53L23.34 3.53L25.66 3.53Q28.29 3.53 29.21 4.17Q30.13 4.82 30.13 6.16L30.13 6.16Q30.13 7.10 29.44 7.61Q28.75 8.12 28.11 8.20L28.11 8.20L28.11 8.22Q28.73 8.26 29.57 8.85Q30.41 9.44 30.41 10.51L30.41 10.51Q30.41 11.77 29.39 12.55Q28.36 13.33 26.00 13.33L26.00 13.33ZM24.79 9.11L24.79 11.66L25.79 11.66Q27.23 11.66 27.76 11.41Q28.28 11.16 28.28 10.38L28.28 10.38Q28.28 9.66 27.68 9.38Q27.07 9.11 25.79 9.11L25.79 9.11L24.79 9.11ZM24.79 5.20L24.79 7.49L25.68 7.49Q26.56 7.49 27.33 7.18Q28.10 6.88 28.10 6.23L28.10 6.23Q28.10 5.72 27.68 5.46Q27.25 5.20 25.68 5.20L25.68 5.20L24.79 5.20ZM31.67 9.74L31.67 9.74Q31.67 8.00 32.57 7.01Q33.47 6.02 35.25 6.02L35.25 6.02Q37.02 6.02 37.92 7.01Q38.82 8.00 38.82 9.74L38.82 9.74Q38.82 11.48 37.92 12.48Q37.02 13.47 35.25 13.47L35.25 13.47Q33.47 13.47 32.57 12.48Q31.67 11.48 31.67 9.74ZM33.69 9.74L33.69 9.74Q33.69 11.04 34.09 11.58Q34.49 12.13 35.25 12.13L35.25 12.13Q36.00 12.13 36.40 11.58Q36.80 11.04 36.80 9.74L36.80 9.74Q36.80 8.44 36.40 7.90Q36.00 7.36 35.25 7.36L35.25 7.36Q34.49 7.36 34.09 7.90Q33.69 8.44 33.69 9.74ZM40.52 7.52L40.06 7.52Q39.66 7.52 39.66 7.18L39.66 7.18L39.66 6.49Q39.66 6.15 40.06 6.15L40.06 6.15L40.52 6.15L40.52 5.91Q40.52 5.61 40.67 5.35L40.67 5.35L41.19 4.43Q41.34 4.17 41.55 4.17L41.55 4.17L42.03 4.17Q42.44 4.17 42.44 4.58L42.44 4.58L42.44 6.15L43.54 6.15Q43.95 6.15 43.95 6.49L43.95 6.49L43.95 7.18Q43.95 7.52 43.54 7.52L43.54 7.52L42.44 7.52L42.44 10.91Q42.44 11.61 42.54 11.91Q42.64 12.22 43.05 12.22L43.05 12.22Q43.26 12.22 43.53 12.14Q43.80 12.07 43.95 12.00L43.95 12.00Q44.19 11.89 44.26 12.16L44.26 12.16L44.47 12.94Q44.53 13.17 44.29 13.28L44.29 13.28Q44.06 13.38 43.67 13.47Q43.28 13.56 42.88 13.56L42.88 13.56Q41.90 13.56 41.21 13.15Q40.52 12.75 40.52 11.49L40.52 11.49L40.52 7.52Z"></path></g><defs data-v-fde0c5aa=""><linearGradient data-v-fde0c5aa="" gradientTransform="rotate(25)" id="d8ffad0a-31c2-4a9e-8605-76f1b029f25b" x1="0%" y1="0%" x2="100%" y2="0%"><stop data-v-fde0c5aa="" offset="0%" stop-color="#49247E" stop-opacity="1"></stop><stop data-v-fde0c5aa="" offset="100%" stop-color="#AA49C7" stop-opacity="1"></stop></linearGradient></defs><g data-v-fde0c5aa="" id="3f45ce9b-1d17-4d1c-8ad9-455eb5723d6a" stroke="none" fill="url(#d8ffad0a-31c2-4a9e-8605-76f1b029f25b)" transform="matrix(3.0250367254806076,0,0,3.0250367254806076,33.94992582781383,115.22576867034729)"><path d="M20.5 13H20v-1a3 3 0 00-3-3h-4V6.723a2 2 0 10-2 0V9H7a3 3 0 00-3 3v1h-.5a1.5 1.5 0 000 3H4v1a3 3 0 003 3h10a3 3 0 003-3v-1h.5a1.5 1.5 0 000-3zM19 17a2.002 2.002 0 01-2 2H7a2.002 2.002 0 01-2-2v-5a2.002 2.002 0 012-2h10a2.002 2.002 0 012 2zm-9-2.5A1.5 1.5 0 118.5 13a1.5 1.5 0 011.5 1.5zm7 0a1.5 1.5 0 11-1.5-1.5 1.5 1.5 0 011.5 1.5z"></path></g><!----></svg>